<svg id="_4254465_browser_cloning_dupicate_site_website_icon" data-name="4254465_browser_cloning_dupicate_site_website_icon" xmlns="http://www.w3.org/2000/svg" xmlns:xlink="http://www.w3.org/1999/xlink" width="52.526" height="46.047" viewBox="0 0 52.526 46.047">
  <defs>
    <linearGradient id="linear-gradient" x1="-0.296" y1="-0.382" x2="-0.292" y2="-0.382" gradientUnits="objectBoundingBox">
      <stop offset="0" stop-color="#4801ff" stop-opacity="0.4"/>
      <stop offset="1" stop-color="#c3daf6"/>
    </linearGradient>
    <clipPath id="clip-path">
      <path id="Rounded-Rectangle-2-copy1" d="M95.38,127.039H128.4v20.774a1.148,1.148,0,0,1-1.148,1.148h-30.3a1.579,1.579,0,0,1-1.579-1.579Z" transform="translate(-95.38 -127.039)" clip-rule="evenodd"/>
    </clipPath>
    <linearGradient id="linear-gradient-2" x1="-0.191" y1="-0.221" x2="-0.187" y2="-0.221" gradientUnits="objectBoundingBox">
      <stop offset="0" stop-color="#dfefff"/>
      <stop offset="1" stop-color="#4801ff" stop-opacity="0.6"/>
    </linearGradient>
    <clipPath id="clip-path-2">
      <path id="Rounded-Rectangle-2-copy3" d="M66.209,91.384H99.232v20.774a1.148,1.148,0,0,1-1.148,1.148h-30.3a1.579,1.579,0,0,1-1.579-1.579Z" transform="translate(-66.209 -91.384)" clip-rule="evenodd"/>
    </clipPath>
    <linearGradient id="linear-gradient-3" x1="-0.059" y1="-0.084" x2="-0.055" y2="-0.084" gradientUnits="objectBoundingBox">
      <stop offset="0" stop-color="#cce6ff"/>
      <stop offset="1" stop-color="#4801ff" stop-opacity="0.702"/>
    </linearGradient>
    <clipPath id="clip-path-3">
      <path id="Path_168" data-name="Path 168" d="M29.474,61.132H62.5V81.906a1.148,1.148,0,0,1-1.148,1.148h-30.3a1.579,1.579,0,0,1-1.579-1.579Z" transform="translate(-29.474 -61.132)" clip-rule="evenodd"/>
    </clipPath>
  </defs>
  <rect id="_19.-Site-cloning" width="52.526" height="46.047" fill="none"/>
  <g id="Group-1-copy" transform="translate(10.791 11.195)">
    <path id="Rounded-Rectangle-1-copy-3" d="M138.132,112.91a1.994,1.994,0,0,0-1.993-1.993H102.8a1.994,1.994,0,0,0-1.993,1.993v25.729a1.994,1.994,0,0,0,1.993,1.993h33.337a1.994,1.994,0,0,0,1.993-1.993V112.91Z" transform="translate(-98.337 -107.418)" fill="rgba(204,230,255,0.16)" fill-rule="evenodd"/>
    <path id="Rounded-Rectangle-1-copy-2" d="M119.133,86.575a1.994,1.994,0,0,0-1.993-1.993H84.2A1.994,1.994,0,0,0,82.2,86.575v25.406a1.994,1.994,0,0,0,1.993,1.993H117.14a1.994,1.994,0,0,0,1.993-1.993Z" transform="translate(-82.205 -84.582)" fill-rule="evenodd" fill="url(#linear-gradient)"/>
    <path id="Rounded-Rectangle-2-copy" d="M95.38,127.039H128.4v20.774a1.148,1.148,0,0,1-1.148,1.148h-30.3a1.579,1.579,0,0,1-1.579-1.579Z" transform="translate(-93.63 -121.398)" fill="#fff" fill-rule="evenodd"/>
    <g id="Group_388" data-name="Group 388" transform="translate(1.75 5.641)" clip-path="url(#clip-path)">
      <rect id="Rectangle-1-copy" width="26.539" height="5.504" transform="translate(2.731 1.59)" fill="#e5f1ff"/>
      <rect id="Rectangle-2-copy-5" width="8.483" height="4.58" transform="translate(2.942 8.234)" fill="#e5f1ff"/>
      <rect id="Rectangle-2-copy-4" width="17.894" height="5.58" transform="translate(2.942 14.671)" fill="#e5f1ff"/>
      <rect id="Rectangle-2-copy-3" width="7.29" height="5.58" transform="translate(21.913 14.671)" fill="#e5f1ff"/>
      <rect id="Rectangle-3-copy" width="7.357" height="1.642" transform="translate(12.649 8.265)" fill="#e5f1ff"/>
      <rect id="Rectangle-4-copy" width="16.701" height="1.758" transform="translate(12.586 11.078)" fill="#e5f1ff"/>
    </g>
    <ellipse id="Ellipse-1-copy-5" cx="0.94" cy="0.94" rx="0.94" ry="0.94" transform="translate(5.172 1.763)" fill="#0084ff"/>
    <ellipse id="Ellipse-1-copy-4" cx="0.94" cy="0.94" rx="0.94" ry="0.94" transform="translate(2.467 1.763)" fill="#55d7ff"/>
    <ellipse id="Ellipse-1-copy-3" cx="0.94" cy="0.94" rx="0.94" ry="0.94" transform="translate(7.873 1.763)" fill="#0bbc00"/>
    <path id="Rounded-Rectangle-3-copy" d="M230.424,98.816a.864.864,0,0,0-.864-.864h-9.039a.864.864,0,0,0-.864.864v.139a.864.864,0,0,0,.864.864h9.039a.864.864,0,0,0,.864-.864Z" transform="translate(-201.396 -96.176)" fill="#e5f1ff" fill-rule="evenodd"/>
    <path id="Rounded-Rectangle-3-copy-3" d="M326.52,98.721a.87.87,0,0,0-.87-.87h-1.2a.87.87,0,0,0-.87.87v.14a.87.87,0,0,0,.87.87h1.2a.87.87,0,0,0,.87-.87Z" transform="translate(-291.512 -96.088)" fill="#e5f1ff" fill-rule="evenodd"/>
  </g>
  <g id="Group-1" transform="translate(6.915 6.458)">
    <path id="Rounded-Rectangle-1-copy-31" d="M101.4,64.29A1.994,1.994,0,0,0,99.4,62.3H66.067a1.994,1.994,0,0,0-1.993,1.993V90.019a1.994,1.994,0,0,0,1.993,1.993H99.4a1.994,1.994,0,0,0,1.993-1.993Z" transform="translate(-62.607 -60.521)" fill="rgba(204,230,255,0.16)" fill-rule="evenodd"/>
    <path id="Rounded-Rectangle-1-copy-21" d="M89.961,50.92a1.994,1.994,0,0,0-1.993-1.993H55.026a1.994,1.994,0,0,0-1.993,1.993V76.326a1.994,1.994,0,0,0,1.993,1.993H87.968a1.994,1.994,0,0,0,1.993-1.993Z" transform="translate(-53.033 -48.927)" fill-rule="evenodd" fill="url(#linear-gradient-2)"/>
    <path id="Rounded-Rectangle-2-copy2" d="M66.209,91.384H99.232v20.774a1.148,1.148,0,0,1-1.148,1.148h-30.3a1.579,1.579,0,0,1-1.579-1.579Z" transform="translate(-64.458 -85.743)" fill="#fff" fill-rule="evenodd"/>
    <g id="Group_389" data-name="Group 389" transform="translate(1.751 5.641)" clip-path="url(#clip-path-2)">
      <rect id="Rectangle-1-copy1" width="26.539" height="5.504" transform="translate(2.731 1.59)" fill="#e5f1ff"/>
      <rect id="Rectangle-2-copy-51" width="8.483" height="4.58" transform="translate(2.942 8.234)" fill="#e5f1ff"/>
      <rect id="Rectangle-2-copy-41" width="17.894" height="5.58" transform="translate(2.942 14.671)" fill="#e5f1ff"/>
      <rect id="Rectangle-2-copy-31" width="7.29" height="5.58" transform="translate(21.913 14.671)" fill="#e5f1ff"/>
      <rect id="Rectangle-3-copy1" width="7.357" height="1.642" transform="translate(12.649 8.265)" fill="#e5f1ff"/>
      <rect id="Rectangle-4-copy1" width="16.701" height="1.758" transform="translate(12.586 11.078)" fill="#e5f1ff"/>
    </g>
    <ellipse id="Ellipse-1-copy-51" cx="0.94" cy="0.94" rx="0.94" ry="0.94" transform="translate(5.172 1.763)" fill="#0084ff"/>
    <ellipse id="Ellipse-1-copy-41" cx="0.94" cy="0.94" rx="0.94" ry="0.94" transform="translate(2.467 1.763)" fill="#55d7ff"/>
    <ellipse id="Ellipse-1-copy-31" cx="0.94" cy="0.94" rx="0.94" ry="0.94" transform="translate(7.873 1.763)" fill="#0bbc00"/>
    <path id="Rounded-Rectangle-3-copy1" d="M201.252,63.161a.864.864,0,0,0-.864-.864H191.35a.864.864,0,0,0-.864.864V63.3a.864.864,0,0,0,.864.864h9.039a.864.864,0,0,0,.864-.864Z" transform="translate(-172.224 -60.521)" fill="#e5f1ff" fill-rule="evenodd"/>
    <path id="Rounded-Rectangle-3-copy-31" d="M297.349,63.066a.87.87,0,0,0-.87-.87h-1.2a.87.87,0,0,0-.87.87v.14a.87.87,0,0,0,.87.87h1.2a.87.87,0,0,0,.87-.87Z" transform="translate(-262.341 -60.433)" fill="#e5f1ff" fill-rule="evenodd"/>
  </g>
  <path id="Rounded-Rectangle-1-copy" d="M64.662,34.038a1.994,1.994,0,0,0-1.993-1.993H29.332a1.994,1.994,0,0,0-1.993,1.993V59.767a1.994,1.994,0,0,0,1.993,1.993H62.669a1.994,1.994,0,0,0,1.993-1.993Z" transform="translate(-23.838 -27.83)" fill="rgba(204,230,255,0.16)" fill-rule="evenodd"/>
  <path id="Rounded-Rectangle-1" d="M53.226,20.668a1.994,1.994,0,0,0-1.993-1.993H18.291A1.994,1.994,0,0,0,16.3,20.668V46.074a1.994,1.994,0,0,0,1.993,1.993H51.233a1.994,1.994,0,0,0,1.993-1.993Z" transform="translate(-14.264 -16.237)" fill-rule="evenodd" fill="url(#linear-gradient-3)"/>
  <path id="Rounded-Rectangle-2" d="M29.474,61.132H62.5V81.906a1.148,1.148,0,0,1-1.148,1.148h-30.3a1.579,1.579,0,0,1-1.579-1.579Z" transform="translate(-25.689 -53.053)" fill="#fff" fill-rule="evenodd"/>
  <g id="Group_390" data-name="Group 390" transform="translate(3.785 8.079)" clip-path="url(#clip-path-3)">
    <rect id="Rectangle-1" width="30.585" height="5.504" transform="translate(1.487 1.59)" fill="#e5f1ff"/>
    <rect id="Rectangle-2" width="9.776" height="4.58" transform="translate(1.73 8.234)" fill="#e5f1ff"/>
    <rect id="Rectangle-2-copy" width="20.623" height="5.58" transform="translate(1.73 14.671)" fill="#e5f1ff"/>
    <rect id="Rectangle-2-copy-2" width="8.401" height="5.58" transform="translate(23.594 14.671)" fill="#e5f1ff"/>
    <rect id="Rectangle-3" width="8.479" height="1.642" transform="translate(12.918 8.265)" fill="#e5f1ff"/>
    <rect id="Rectangle-4" width="19.247" height="1.758" transform="translate(12.846 11.078)" fill="#e5f1ff"/>
  </g>
  <ellipse id="Ellipse-1" cx="0.94" cy="0.94" rx="0.94" ry="0.94" transform="translate(7.206 4.201)" fill="#0084ff"/>
  <ellipse id="Ellipse-1-copy" cx="0.94" cy="0.94" rx="0.94" ry="0.94" transform="translate(4.501 4.201)" fill="#55d7ff"/>
  <ellipse id="Ellipse-1-copy-2" cx="0.94" cy="0.94" rx="0.94" ry="0.94" transform="translate(9.907 4.201)" fill="#0bbc00"/>
  <path id="Rounded-Rectangle-3" d="M164.517,32.909a.864.864,0,0,0-.864-.864h-9.039a.864.864,0,0,0-.864.864v.139a.864.864,0,0,0,.864.864h9.039a.864.864,0,0,0,.864-.864Z" transform="translate(-133.455 -27.83)" fill="#e5f1ff" fill-rule="evenodd"/>
  <path id="Rounded-Rectangle-3-copy-2" d="M260.614,32.814a.87.87,0,0,0-.87-.87h-1.2a.87.87,0,0,0-.87.87v.14a.87.87,0,0,0,.87.87h1.2a.871.871,0,0,0,.87-.87Z" transform="translate(-223.572 -27.743)" fill="#e5f1ff" fill-rule="evenodd"/>
  <path id="Shape-1-copy-2" d="M177.531,177.325a.951.951,0,0,0-.814.4.519.519,0,0,0,.044.54,22.532,22.532,0,0,1,1.177,2.527,27.7,27.7,0,0,0,1.482,3.151c.776,1.361,1.166,2.12,1.351,2.5h5.62c.17-.311.492-.876,1.109-1.947a9.264,9.264,0,0,0,1.2-4.4l0-2.124c0-.016,0-.031,0-.047,0-.042.074-1.081-.655-1.246a.754.754,0,0,0-.166-.02c-.084,0-.336,0-.471.535-.025.176-.051.285-.051.285a.515.515,0,0,1-1.014-.164,2.264,2.264,0,0,1,.051-.316,1.655,1.655,0,0,0-.18-1.159.642.642,0,0,0-.506-.225c-.414-.029-.7.045-.753.579l.02.507a.52.52,0,0,1-.455.541.512.512,0,0,1-.565-.419,2.7,2.7,0,0,1-.033-.653l-.013-.328a.542.542,0,0,1,.015-.15.9.9,0,0,0-.1-.636.955.955,0,0,0-.728-.244h0c-.329,0-.632.082-.733.665l.028,1.04a.521.521,0,0,1-.454.535.512.512,0,0,1-.565-.412,4.113,4.113,0,0,1-.042-1.229l-.1-3.7a.429.429,0,0,1,0-.05,1.15,1.15,0,0,0-.212-.732.588.588,0,0,0-.451-.167c-.733,0-.775.85-.778.947l-.075,6.378a.523.523,0,0,1-.424.51.517.517,0,0,1-.572-.327,1.27,1.27,0,0,0-1.188-.949Z" transform="translate(-153.32 -148.121)" fill="rgba(112,209,255,0.53)" fill-rule="evenodd"/>
  <path id="Shape-1-copy" d="M176.927,175.963a.808.808,0,0,0-.691.335.437.437,0,0,0,.037.456,18.958,18.958,0,0,1,1,2.135,23.33,23.33,0,0,0,1.257,2.662c.658,1.15.989,1.791,1.146,2.114h4.767c.144-.263.417-.74.941-1.645A7.8,7.8,0,0,0,186.4,178.3l0-1.794c0-.014,0-.026,0-.04,0-.035.062-.913-.556-1.052a.646.646,0,0,0-.141-.017c-.071,0-.285,0-.4.452-.021.148-.043.241-.043.241a.437.437,0,0,1-.86-.138,1.912,1.912,0,0,1,.044-.267,1.392,1.392,0,0,0-.153-.979.544.544,0,0,0-.429-.19c-.351-.024-.591.038-.638.489l.017.428a.44.44,0,0,1-.386.457.434.434,0,0,1-.48-.354,2.273,2.273,0,0,1-.028-.552l-.011-.277a.451.451,0,0,1,.013-.127.759.759,0,0,0-.082-.538.813.813,0,0,0-.618-.207h0c-.279,0-.536.07-.622.562l.024.878a.441.441,0,0,1-.385.452.434.434,0,0,1-.479-.348,3.461,3.461,0,0,1-.035-1.038l-.085-3.124a.4.4,0,0,1,0-.042.969.969,0,0,0-.179-.618.5.5,0,0,0-.382-.141c-.622,0-.658.718-.66.8l-.063,5.388a.436.436,0,0,1-.845.155,1.077,1.077,0,0,0-1.008-.8h0Z" transform="translate(-152.911 -147.822)" fill="#fff" fill-rule="evenodd"/>
  <path id="Shape-1" d="M173.7,178.767a.437.437,0,0,1-.4-.275c0-.012-.231-.551-1.22-2.28a24.425,24.425,0,0,1-1.305-2.76,18.256,18.256,0,0,0-.948-2.034,1.328,1.328,0,0,1-.041-1.344,1.662,1.662,0,0,1,1.449-.78,1.8,1.8,0,0,1,.993.292l.049-4.164a1.586,1.586,0,0,1,1.52-1.669,1.375,1.375,0,0,1,1.04.429,1.846,1.846,0,0,1,.409,1.251l.051,1.865a1.812,1.812,0,0,1,1.97.429,1.274,1.274,0,0,1,.149.252,1.62,1.62,0,0,1,.811-.125,1.428,1.428,0,0,1,1.045.513,1.541,1.541,0,0,1,.252.466,1.277,1.277,0,0,1,.814-.062,1.794,1.794,0,0,1,1.238,1.973l0,1.764a8.631,8.631,0,0,1-1.135,4.178c-.808,1.4-.986,1.725-1.025,1.8a.442.442,0,0,1-.071.123.436.436,0,0,1-.363.16Zm-2.471-8.587a.808.808,0,0,0-.691.335.437.437,0,0,0,.037.456,18.96,18.96,0,0,1,1,2.135,23.325,23.325,0,0,0,1.257,2.662c.658,1.15.989,1.791,1.146,2.114h4.767c.144-.263.417-.74.941-1.645a7.8,7.8,0,0,0,1.015-3.715l0-1.794c0-.014,0-.026,0-.04,0-.035.062-.913-.556-1.052a.645.645,0,0,0-.141-.017c-.071,0-.285,0-.4.452-.021.148-.043.241-.043.241a.437.437,0,0,1-.86-.138,1.912,1.912,0,0,1,.044-.267,1.392,1.392,0,0,0-.153-.979.544.544,0,0,0-.429-.19c-.351-.024-.591.038-.638.489l.017.428a.44.44,0,0,1-.386.457.434.434,0,0,1-.48-.354,2.274,2.274,0,0,1-.028-.552l-.011-.277a.451.451,0,0,1,.013-.127.759.759,0,0,0-.082-.538.812.812,0,0,0-.618-.207h0c-.279,0-.536.069-.622.562l.024.878a.441.441,0,0,1-.385.452.434.434,0,0,1-.479-.348,3.461,3.461,0,0,1-.035-1.038l-.085-3.124a.41.41,0,0,1,0-.042.969.969,0,0,0-.18-.618.5.5,0,0,0-.382-.141c-.622,0-.658.718-.66.8l-.063,5.388a.436.436,0,0,1-.845.155,1.077,1.077,0,0,0-1.008-.8h0Z" transform="translate(-147.213 -142.039)" fill="#4801ff" fill-rule="evenodd"/>
</svg>
