<svg xmlns="http://www.w3.org/2000/svg" width="19.796" height="19.796" viewBox="0 0 19.796 19.796"><g transform="translate(0 8.998) rotate(-45)"><g transform="translate(12.725 15.27) rotate(180)"><path d="M6.17,15.244h0l-.01,0-.008,0h0l-.012,0h0a.706.706,0,0,1-.267-.165h0L.205,9.467a.686.686,0,0,1,0-.981.712.712,0,0,1,.917-.066l.079.067,4.455,4.408V.694A.705.705,0,0,1,7.061.6l.006.094V12.9l4.454-4.408a.712.712,0,0,1,1,0,.687.687,0,0,1,.07.9l-.068.078-5.658,5.6a.708.708,0,0,1-.5.2A.716.716,0,0,1,6.17,15.244Z" transform="translate(0 0)" fill="#fff"/></g></g></svg>