<svg xmlns="http://www.w3.org/2000/svg" width="19.914" height="17.923" viewBox="0 0 19.914 17.923"><g transform="translate(0 0)"><path d="M5.432,17.923a5.227,5.227,0,0,1-3.9-1.686A6.084,6.084,0,0,1,0,12.089V5.834A6.084,6.084,0,0,1,1.533,1.686,5.227,5.227,0,0,1,5.432,0h9.03A5.532,5.532,0,0,1,19.9,5.834l0,6.21a5.6,5.6,0,0,1-1.47,4.113,5.534,5.534,0,0,1-3.979,1.765ZM1.511,5.834v6.255A4,4,0,0,0,5.432,16.4h9.013a4.006,4.006,0,0,0,2.882-1.281,4.073,4.073,0,0,0,1.066-3.031v-6.3A4.063,4.063,0,0,0,17.328,2.8a4.006,4.006,0,0,0-2.882-1.281H5.432A4,4,0,0,0,1.511,5.834Zm6.836,4.26-.16-.117L4.069,6.686a.766.766,0,0,1-.122-1.069.752.752,0,0,1,.969-.186l.093.063L9.121,8.78a1.371,1.371,0,0,0,1.574.088l.117-.082L14.894,5.5a.751.751,0,0,1,1.061.118.766.766,0,0,1-.035.993l-.082.076-4.089,3.3a2.878,2.878,0,0,1-3.4.114Z"/></g></svg>