<svg xmlns="http://www.w3.org/2000/svg" width="46.969" height="26.948" viewBox="0 0 46.969 26.948"><path d="M-6481.811-1504.831l-12.09-11.861-10.976,9.01-16.087-16.284" transform="translate(6527.366 1530.366)" fill="none" stroke="#1fd0e0" stroke-linecap="round" stroke-width="2"/><g transform="translate(9.428 0) rotate(45)"><path d="M7.3.2a.676.676,0,0,1,.068.893L7.3,1.171l-5.606,5.5,5.606,5.5a.676.676,0,0,1,.068.893l-.068.077a.71.71,0,0,1-.911.066l-.078-.066L.2,7.152a.676.676,0,0,1-.068-.893L.2,6.182,6.306.2A.71.71,0,0,1,7.3.2Z" transform="translate(0 0)" fill="#1fd0e0"/></g></svg>