<svg xmlns="http://www.w3.org/2000/svg" width="29.764" height="24.837" viewBox="0 0 29.764 24.837"><path d="M19.255,13.8a7.327,7.327,0,0,0-1.524-.47,8.215,8.215,0,0,1-1.041-.317,1.359,1.359,0,0,1-.533-.343.7.7,0,0,1-.165-.483.724.724,0,0,1,.33-.648,1.638,1.638,0,0,1,.914-.229,1.613,1.613,0,0,1,.889.229.864.864,0,0,1,.419.571.3.3,0,0,0,.3.19h1a.216.216,0,0,0,.229-.229,1.689,1.689,0,0,0-.279-.8,2.362,2.362,0,0,0-.749-.724,2.921,2.921,0,0,0-1.181-.406V9.394a.241.241,0,0,0-.254-.254h-.66a.254.254,0,0,0-.178.063.241.241,0,0,0-.076.19v.736a2.781,2.781,0,0,0-1.638.7,1.854,1.854,0,0,0-.6,1.4,1.714,1.714,0,0,0,.584,1.4,4.5,4.5,0,0,0,1.829.787q.749.2,1.143.343a1.587,1.587,0,0,1,.584.33.648.648,0,0,1,.19.483.775.775,0,0,1-.381.686,2.006,2.006,0,0,1-1.1.254,1.892,1.892,0,0,1-1.029-.241,1.13,1.13,0,0,1-.5-.61.5.5,0,0,0-.127-.152.343.343,0,0,0-.19,0h-.952a.229.229,0,0,0-.165.063.216.216,0,0,0-.063.152,1.79,1.79,0,0,0,.3.914,2.222,2.222,0,0,0,.825.724,3.4,3.4,0,0,0,1.27.368v.736a.241.241,0,0,0,.076.19.254.254,0,0,0,.178.063h.66a.241.241,0,0,0,.254-.254v-.736a3.149,3.149,0,0,0,1.79-.686,1.879,1.879,0,0,0,.66-1.5,1.841,1.841,0,0,0-.267-1.029A1.956,1.956,0,0,0,19.255,13.8Z" transform="translate(3.856 2.466)" fill="#6b32fd"/><path d="M21.168,7.924H17.93V4.66a.635.635,0,0,0-.635-.635h-.787V.635A.635.635,0,0,0,15.873,0H.635A.635.635,0,0,0,0,.635v3.9a.635.635,0,0,0,.635.635h.838v3.39a.635.635,0,0,0,.635.635h.635v2.641H.838A.635.635,0,0,0,.2,12.47V24.127a.635.635,0,0,0,.635.635H16.076a.635.635,0,0,0,.635-.635v-.648A8.457,8.457,0,1,0,21.168,7.924ZM1.27,1.27H15.238V3.9H1.27ZM2.743,5.3H16.711V7.924H2.743Zm1.27,3.9h12.7a8.508,8.508,0,0,0-2.667,2.629H4.013ZM12.9,19.632H1.473V17H12.7a8.393,8.393,0,0,0,.622,2.629ZM1.473,13.092h11.9a8.394,8.394,0,0,0-.635,2.629H1.473ZM15.441,23.53H1.473V20.9H14.032a8.469,8.469,0,0,0,1.359,1.638Zm5.778,0a7.162,7.162,0,0,1-6.209-10.743.622.622,0,0,0,.063-.114A7.162,7.162,0,1,1,21.219,23.53Z" fill="#6b32fd"/></svg>