<svg xmlns="http://www.w3.org/2000/svg" width="28.333" height="28.333" viewBox="0 0 28.333 28.333"><path d="M8.015,28.333c-4.707,0-7.87-3.276-8.011-8.024l0-.334V8.411C0,3.6,3.064.211,7.69.059L8.015.054h5.209a1.043,1.043,0,0,1,.141,2.076l-.141.01H8.015C4.5,2.14,2.227,4.467,2.1,8.079l-.006.332V19.976C2.09,23.67,4.254,26.1,7.7,26.24l.317.006H20.309c3.522,0,5.791-2.321,5.921-5.939l.006-.332v-5.6a1.045,1.045,0,0,1,2.08-.141l.01.141v5.6c0,4.815-3.056,8.2-7.691,8.353l-.326,0ZM8.5,20.767A1.045,1.045,0,0,1,7.452,19.7l.13-5.258A4.041,4.041,0,0,1,8.774,11.67l10.411-10.4a4.374,4.374,0,0,1,6.174,0l1.7,1.693a4.356,4.356,0,0,1,0,6.165L16.593,19.577a4.048,4.048,0,0,1-2.877,1.191Zm1.755-7.622a1.963,1.963,0,0,0-.58,1.346l-.105,4.187,4.149,0a1.989,1.989,0,0,0,1.255-.448l.145-.131,8.127-8.114L18.328,5.082ZM24.72,8.512l.857-.855a2.271,2.271,0,0,0,0-3.213l-1.7-1.692a2.28,2.28,0,0,0-3.219,0l-.856.855Z" fill="#4801ff"/></svg>