<svg xmlns="http://www.w3.org/2000/svg" width="25.435" height="23.104" viewBox="0 0 25.435 23.104"><g transform="translate(0 0)"><path d="M5.267,23.1A5.274,5.274,0,0,1,0,17.835V14.4a.955.955,0,0,1,.953-.953,1.9,1.9,0,0,0,1.894-1.894A1.8,1.8,0,0,0,.953,9.771.955.955,0,0,1,0,8.817V5.268A5.275,5.275,0,0,1,5.27,0h14.9a5.274,5.274,0,0,1,5.267,5.268l0,3.437a.954.954,0,0,1-.953.955l-.183.009a1.893,1.893,0,0,0,.183,3.778.955.955,0,0,1,.953.953v3.434a5.275,5.275,0,0,1-5.268,5.27ZM1.909,5.27l0,2.707.132.033a3.639,3.639,0,0,1,2.71,3.322l.006.222A3.82,3.82,0,0,1,2.034,15.2l-.127.032v2.6a3.365,3.365,0,0,0,3.148,3.355l.212.007h14.9a3.366,3.366,0,0,0,3.362-3.362v-2.6L23.4,15.2a3.8,3.8,0,0,1-2.716-3.422l-.006-.224A3.818,3.818,0,0,1,23.4,7.908l.127-.034,0-2.605a3.365,3.365,0,0,0-3.148-3.355l-.212-.006H5.27A3.365,3.365,0,0,0,1.909,5.27ZM9.466,15.558a1.211,1.211,0,0,1-.328-.913l.016-.136.338-1.971L8.06,11.144A1.236,1.236,0,0,1,8.6,9.064l.141-.029,1.977-.287.887-1.8a1.236,1.236,0,0,1,2.216,0l.886,1.795,1.981.287a1.238,1.238,0,0,1,.779,2l-.1.106-1.433,1.393.339,1.972a1.209,1.209,0,0,1-.267,1,1.248,1.248,0,0,1-.953.446,1.222,1.222,0,0,1-.45-.086l-.125-.057-1.77-.929-1.771.931a1.226,1.226,0,0,1-.572.143A1.251,1.251,0,0,1,9.466,15.558Zm3.573-2.652.122.054,1.008.531-.192-1.125a.95.95,0,0,1,.185-.745l.089-.1.814-.8-1.125-.163a.963.963,0,0,1-.651-.406l-.068-.116-.506-1.024-.5,1.024a.955.955,0,0,1-.718.522l-1.126.163.815.8a.958.958,0,0,1,.287.712l-.013.133-.193,1.124,1.01-.53a.952.952,0,0,1,.766-.054Z" transform="translate(0 0)" fill="#4801ff"/></g></svg>